<?xml version="1.0" encoding="UTF-8"?>
<svg width="27px" height="28px" viewBox="0 0 27 28" version="1.1" xmlns="http://www.w3.org/2000/svg" xmlns:xlink="http://www.w3.org/1999/xlink">
    <title>credits</title>
    <g id="Page-1" stroke="none" stroke-width="1" fill="none" fill-rule="evenodd">
        <g id="Tools-menu" transform="translate(-499.000000, -372.000000)" fill="#4651F3" fill-rule="nonzero">
            <g id="credits" transform="translate(499.000000, 372.000000)">
                <path d="M25.725,14.07175 L20.125,11.6725 L20.125,3.5 C20.1255171,3.1516091 19.919306,2.83610613 19.6,2.69675 L13.475,0.07175 C13.254854,-0.0226211539 13.005646,-0.0226211539 12.7855,0.07175 L6.6605,2.69675 C6.33708191,2.83289972 6.12628509,3.14909495 6.125,3.5 L6.125,9.0475 L0.525,11.44675 C0.205693951,11.5861061 -0.000517145114,11.9016091 -5.34049266e-06,12.25 L-5.34049266e-06,19.25 C-0.00121538969,19.5990256 0.20510985,19.915391 0.525,20.055 L18.9,27.93 C19.1209011,28.0236495 19.3703489,28.0236495 19.59125,27.93 L25.71625,25.305 C26.0395668,25.1680632 26.2497138,24.8511202 26.250001,24.5 L26.250001,14.875 C26.2505171,14.5266091 26.044306,14.2111061 25.725,14.07175 Z M7.875,4.8265 L12.25,6.7025 L12.25,23.1735 L7.875,21.2975 L7.875,4.8265 Z M14,16.2015 L18.375,18.0775 L18.375,25.7985 L14,23.9225 L14,16.2015 Z M19.25,16.5515 L15.3475,14.875 L19.25,13.202 L23.1525,14.875 L19.25,16.5515 Z M13.125,1.827 L17.0275,3.5 L13.125,5.173 L9.2225,3.5 L13.125,1.827 Z M6.125,10.9515 L6.125,13.5485 L3.0975,12.25 L6.125,10.9515 Z M1.75,13.5765 L6.125,15.4525 L6.125,20.5485 L1.75,18.6725 L1.75,13.5765 Z" id="Shape"></path>
            </g>
        </g>
    </g>
</svg>