<?xml version="1.0" encoding="UTF-8"?>
<svg width="14px" height="12px" viewBox="0 0 14 12" version="1.1" xmlns="http://www.w3.org/2000/svg" xmlns:xlink="http://www.w3.org/1999/xlink">
    <title>crown</title>
    <defs>
        <linearGradient x1="131.595493%" y1="-23.0214817%" x2="0%" y2="106.299832%" id="linearGradient-1">
            <stop stop-color="#FFF5AF" offset="0%"></stop>
            <stop stop-color="#FFD11A" offset="100%"></stop>
        </linearGradient>
    </defs>
    <g id="Page-1" stroke="none" stroke-width="1" fill="none" fill-rule="evenodd">
        <g id="Tools-menu" transform="translate(-492.000000, -162.000000)" fill="url(#linearGradient-1)">
            <g id="Group-3" transform="translate(484.000000, 157.000000)">
                <g id="crown" transform="translate(8.000000, 5.000000)">
                    <path d="M12.3157902,10.1684216 L12.3157902,11.4000006 C12.3157902,11.626728 12.1319912,11.8105269 11.9052638,11.8105269 L11.9052638,11.8105269 L1.23157902,11.8105269 C1.00485158,11.8105269 0.821052677,11.626728 0.821052677,11.4000006 L0.821052677,11.4000006 L0.821052677,10.1684216 L12.3157902,10.1684216 Z M6.56801087,0 C7.24822386,0 7.79964545,0.551396707 7.79964545,1.23157902 C7.79866378,1.41429946 7.44077972,1.91024563 7.36069251,2.07448431 C8.03738245,3.22534586 8.88097499,4.14168506 9.24722662,5.42551609 C10.2913368,4.78043092 11.4462343,4.33497464 12.6531068,4.11183181 C12.8114383,4.08313713 12.9719372,4.14958067 13.0636516,4.28178971 C13.1555834,4.41434042 13.1613656,4.58844245 13.0784312,4.72680026 C12.3792525,6.05854718 11.9841281,7.52876984 11.9215158,9.03157944 L11.9215158,9.03157944 L1.21450591,9.03157944 C1.15147149,7.52893662 0.756667543,6.05886296 0.0584115852,4.72680026 C-0.0245227837,4.58844245 -0.0187405368,4.41434042 0.0731912002,4.28178971 C0.164077409,4.14855734 0.325266971,4.08182787 0.483736059,4.11183181 C1.6909685,4.33551274 2.84613612,4.78152263 3.8904373,5.42715819 C4.25573739,4.1427321 5.09879595,3.22579944 5.77532922,2.07448431 C5.69524202,1.91024563 5.33735796,1.41429946 5.33637629,1.23157902 C5.33637629,0.551396707 5.88779787,0 6.56801087,0 Z" id="Combined-Shape"></path>
                </g>
            </g>
        </g>
    </g>
</svg>