<?xml version="1.0" encoding="iso-8859-1"?>
<!-- Generator: Adobe Illustrator 19.0.0, SVG Export Plug-In . SVG Version: 6.00 Build 0)  -->
<svg version="1.1" id="Capa_1" xmlns="http://www.w3.org/2000/svg" xmlns:xlink="http://www.w3.org/1999/xlink" x="0px" y="0px"
	 viewBox="0 0 512 512" style="enable-background:new 0 0 512 512;" xml:space="preserve">
<rect x="8.533" y="8.533" style="fill:#F5F1EF;" width="494.933" height="494.933"/>
<rect x="8.533" y="8.533" style="fill:#55A9DB;" width="494.933" height="68.267"/>
<path style="fill:#DEDAD8;" d="M8.533,461.534v41.933h494.933V76.8H297.25C273.988,246.332,164.813,391.825,8.533,461.534z"/>
<path style="opacity:0.3;fill:#1588C9;enable-background:new    ;" d="M302.012,8.533L302.012,8.533
	c-0.034,22.835-1.63,45.645-4.762,68.267h206.217V8.533H302.012z"/>
<g>
	<rect x="59.733" y="384" style="fill:#FFC117;" width="68.267" height="68.267"/>
	<rect x="59.733" y="128" style="fill:#FFC117;" width="68.267" height="68.267"/>
	<rect x="59.733" y="256" style="fill:#FFC117;" width="68.267" height="68.267"/>
</g>
<path d="M503.467,0H8.533C3.823,0,0,3.823,0,8.533v494.933C0,508.177,3.823,512,8.533,512h494.933c4.71,0,8.533-3.823,8.533-8.533
	V8.533C512,3.823,508.177,0,503.467,0z M494.933,17.067v51.2H17.067v-51.2H494.933z M17.067,494.933v-409.6h477.867v409.6H17.067z"
	/>
<rect x="34.133" y="34.133" width="25.6" height="17.067"/>
<rect x="76.8" y="34.133" width="25.6" height="17.067"/>
<path d="M128,119.467H59.733c-4.71,0-8.533,3.823-8.533,8.533v68.267c0,4.71,3.823,8.533,8.533,8.533H128
	c4.71,0,8.533-3.823,8.533-8.533V128C136.533,123.29,132.71,119.467,128,119.467z M119.467,187.733h-51.2v-51.2h51.2V187.733z"/>
<path d="M128,247.467H59.733c-4.71,0-8.533,3.823-8.533,8.533v68.267c0,4.71,3.823,8.533,8.533,8.533H128
	c4.71,0,8.533-3.823,8.533-8.533V256C136.533,251.29,132.71,247.467,128,247.467z M119.467,315.733h-51.2v-51.2h51.2V315.733z"/>
<path d="M128,375.467H59.733c-4.71,0-8.533,3.823-8.533,8.533v68.267c0,4.71,3.823,8.533,8.533,8.533H128
	c4.71,0,8.533-3.823,8.533-8.533V384C136.533,379.29,132.71,375.467,128,375.467z M119.467,443.733h-51.2v-51.2h51.2V443.733z"/>
<rect x="153.6" y="145.067" width="17.067" height="17.067"/>
<path d="M258.5,181.7l12.066,12.066l34.133-34.133c3.328-3.328,3.328-8.738,0-12.066l-34.133-34.133L258.5,125.5l19.567,19.567
	h-90.334v17.067h90.334L258.5,181.7z"/>
<rect x="153.6" y="281.6" width="17.067" height="17.067"/>
<path d="M432.7,249.967l-12.066,12.066l19.567,19.567H187.733v17.067h252.467l-19.567,19.567L432.7,330.3l34.133-34.133
	c3.328-3.328,3.328-8.738,0-12.066L432.7,249.967z"/>
<rect x="153.6" y="418.133" width="17.067" height="17.067"/>
<path d="M347.366,386.5L335.3,398.566l19.567,19.567H187.733V435.2h167.134L335.3,454.767l12.066,12.066L381.5,432.7
	c3.328-3.328,3.328-8.738,0-12.066L347.366,386.5z"/>
<g>
</g>
<g>
</g>
<g>
</g>
<g>
</g>
<g>
</g>
<g>
</g>
<g>
</g>
<g>
</g>
<g>
</g>
<g>
</g>
<g>
</g>
<g>
</g>
<g>
</g>
<g>
</g>
<g>
</g>
</svg>
