<?xml version="1.0" encoding="iso-8859-1"?>
<!-- Generator: Adobe Illustrator 19.0.0, SVG Export Plug-In . SVG Version: 6.00 Build 0)  -->
<svg version="1.1" id="Capa_1" xmlns="http://www.w3.org/2000/svg" xmlns:xlink="http://www.w3.org/1999/xlink" x="0px" y="0px"
	 viewBox="0 0 512 512" style="enable-background:new 0 0 512 512;" xml:space="preserve">
<rect x="7.5" y="7.5" style="fill:#67D3FB;" width="159" height="497"/>
<rect x="7.5" y="7.5" style="fill:#E5E5E5;" width="497" height="159"/>
<rect x="166.5" y="7.5" style="fill:#FCD660;" width="338" height="497"/>
<rect x="474.5" y="7.5" style="fill:#FFBD00;" width="30" height="497"/>
<circle style="fill:#67D4FC;" cx="335.5" cy="176.5" r="169"/>
<path style="fill:#6576D4;" d="M504.5,176.5c0,35.73-11.09,68.86-30,96.16c-30.51,44.02-81.39,72.84-139,72.84
	c-93.34,0-169-75.66-169-169s75.66-169,169-169c57.61,0,108.49,28.82,139,72.84C493.41,107.64,504.5,140.77,504.5,176.5z"/>
<path style="fill:#5361AD;" d="M504.5,176.5c0,35.73-11.09,68.86-30,96.16V80.34C493.41,107.64,504.5,140.77,504.5,176.5z"/>
<circle style="fill:#FF6242;" cx="335.5" cy="425" r="79.5"/>
<circle style="fill:#FF7E91;" cx="87" cy="87" r="79.5"/>
<polygon style="fill:#6E6E6E;" points="7.5,166.5 166.5,504.5 7.5,504.5 "/>
<path d="M504.5,0h-24c-4.142,0-7.5,3.358-7.5,7.5s3.358,7.5,7.5,7.5H497v90.336C479.218,65.139,446.861,32.782,406.664,15H447
	c4.142,0,7.5-3.358,7.5-7.5S451.142,0,447,0H166.5H7.5C3.358,0,0,3.358,0,7.5v159v338c0,4.142,3.358,7.5,7.5,7.5h159h338
	c4.142,0,7.5-3.358,7.5-7.5V480c0-4.142-3.358-7.5-7.5-7.5s-7.5,3.358-7.5,7.5v17H384.284c23.047-15.666,38.216-42.094,38.216-72
	c0-33.21-18.707-62.129-46.135-76.785c54.07-12.867,98.572-50.676,120.635-100.551V448c0,4.142,3.358,7.5,7.5,7.5s7.5-3.358,7.5-7.5
	V166.5V7.5C512,3.358,508.642,0,504.5,0z M496.049,159H174.951c8.752-80.85,77.41-144,160.549-144S487.296,78.15,496.049,159z
	 M159,135.784V159h-23.216C144.909,152.798,152.798,144.909,159,135.784z M87,159c-39.701,0-72-32.299-72-72s32.299-72,72-72
	s72,32.299,72,72S126.701,159,87,159z M174,105.336V15h90.336C224.139,32.782,191.782,65.139,174,105.336z M159,15v23.216
	c-6.202-9.125-14.091-17.014-23.216-23.216H159z M15,15h23.216C29.091,21.202,21.202,29.091,15,38.216V15z M38.216,159H15v-23.216
	C21.202,144.909,29.091,152.798,38.216,159z M15,497V200.063l12.715,27.03c1.763,3.748,6.231,5.357,9.979,3.594
	s5.357-6.231,3.594-9.979L19.316,174H159v296.937L55.381,250.665c-1.763-3.749-6.23-5.357-9.979-3.594
	c-3.748,1.763-5.357,6.231-3.594,9.979L154.684,497H15z M174,497V247.664c22.063,49.874,66.565,87.684,120.635,100.551
	C267.207,362.871,248.5,391.79,248.5,425c0,29.906,15.169,56.334,38.216,72H174z M407.5,425c0,39.701-32.299,72-72,72
	s-72-32.299-72-72s32.299-72,72-72S407.5,385.299,407.5,425z M335.5,338C246.449,338,174,265.551,174,176.5
	c0-0.836,0.019-1.667,0.032-2.5h322.937c0.013,0.833,0.032,1.664,0.032,2.5C497,265.551,424.551,338,335.5,338z"/>
<g>
</g>
<g>
</g>
<g>
</g>
<g>
</g>
<g>
</g>
<g>
</g>
<g>
</g>
<g>
</g>
<g>
</g>
<g>
</g>
<g>
</g>
<g>
</g>
<g>
</g>
<g>
</g>
<g>
</g>
</svg>
