<?xml version="1.0" encoding="UTF-8"?>
<svg width="29px" height="23px" viewBox="0 0 29 23" version="1.1" xmlns="http://www.w3.org/2000/svg" xmlns:xlink="http://www.w3.org/1999/xlink">
    <title>export</title>
    <g id="Page-1" stroke="none" stroke-width="1" fill="none" fill-rule="evenodd">
        <g id="Tools-menu" transform="translate(-499.000000, -219.000000)" fill="#4651F3" fill-rule="nonzero">
            <g id="export" transform="translate(499.000000, 219.000000)">
                <g id="flatbed-truck" transform="translate(0.000000, 6.336000)">
                    <path d="M28.6636811,5.26656021 L25.783681,0.466560019 C25.6102153,0.177071282 25.297483,-2.12177846e-08 24.960001,-2.12177846e-08 L18.2400007,-2.12177846e-08 C17.7098073,-2.12177846e-08 17.2800007,0.429806657 17.2800007,0.960000038 L17.2800007,7.68000031 L0.960000038,7.68000031 C0.429806657,7.68000031 0,8.10980696 0,8.64000034 L0,12.4800005 C0,13.0101939 0.429806657,13.4400005 0.960000038,13.4400005 L4.01664016,13.4400005 C4.4173551,14.590205 5.50199261,15.3609083 6.72000027,15.3609083 C7.93800793,15.3609083 9.02264544,14.590205 9.42336037,13.4400005 L21.2966408,13.4400005 C21.6973558,14.590205 22.7819933,15.3609083 24,15.3609083 C25.2180086,15.3609083 26.3026461,14.590205 26.7033611,13.4400005 L27.8400011,13.4400005 C28.3701945,13.4400005 28.8000011,13.0101939 28.8000011,12.4800005 L28.8000011,5.76000023 C28.8000011,5.58621334 28.7529467,5.41566936 28.6636811,5.26656021 Z M26.7206411,5.76000023 L21.1200008,5.76000023 L21.1200008,1.92000008 L24.416641,1.92000008 L26.7206411,5.76000023 Z M6.72000027,13.4400005 C6.18980689,13.4400005 5.76000023,13.0101939 5.76000023,12.4800005 C5.76000023,11.9498071 6.18980689,11.5200005 6.72000027,11.5200005 C7.25019365,11.5200005 7.68000031,11.9498071 7.68000031,12.4800005 C7.68000031,13.0101939 7.25019365,13.4400005 6.72000027,13.4400005 Z M24.000001,13.4400005 C23.4698076,13.4400005 23.0400009,13.0101939 23.0400009,12.4800005 C23.0400009,11.9498071 23.4698076,11.5200005 24.000001,11.5200005 C24.5301943,11.5200005 24.960001,11.9498071 24.960001,12.4800005 C24.960001,13.0101939 24.5301943,13.4400005 24.000001,13.4400005 Z" id="Shape"></path>
                </g>
                <path d="M14.2200006,9.79200039 L13.0800005,9.79200039 L13.0800005,3.93600016 C13.0800005,3.67090347 12.8650972,3.45600014 12.6000005,3.45600014 L11.2800004,3.45600014 C11.0149038,3.45600014 10.8000004,3.67090347 10.8000004,3.93600016 L10.8000004,9.79200039 L10.8000004,9.79200039 L9.30000037,9.79200039 L9.30000037,0.480000019 C9.30000037,0.214903329 9.08509704,2.7347167e-14 8.82000035,2.72848421e-14 L7.5000003,2.72848421e-14 C7.23490361,2.73335396e-14 7.02000028,0.214903329 7.02000028,0.480000019 L7.02000028,9.79200039 L7.02000028,9.79200039 L5.52000022,9.79200039 L5.52000022,5.66400023 C5.52000022,5.39890353 5.30509689,5.18400021 5.0400002,5.18400021 L3.72000015,5.18400021 C3.45490346,5.18400021 3.24000013,5.39890353 3.24000013,5.66400023 L3.24000013,9.79200039 L3.24000013,9.79200039 L2.10000008,9.79200039 C1.47039544,9.79200039 0.960000038,10.3077684 0.960000038,10.9440004 C0.960000038,11.5802325 1.47039544,12.0960005 2.10000008,12.0960005 L14.2200006,12.0960005 C14.8496052,12.0960005 15.3600006,11.5802325 15.3600006,10.9440004 C15.3600006,10.3077684 14.8496052,9.79200039 14.2200006,9.79200039 Z" id="Path"></path>
            </g>
        </g>
    </g>
</svg>