<?xml version="1.0" encoding="UTF-8"?>
<svg width="47px" height="47px" viewBox="0 0 47 47" version="1.1" xmlns="http://www.w3.org/2000/svg" xmlns:xlink="http://www.w3.org/1999/xlink">
    <title>Group 10</title>
    <g id="Page-1" stroke="none" stroke-width="1" fill="none" fill-rule="evenodd">
        <g id="Pricing-Page-Alt" transform="translate(-216.000000, -1405.000000)">
            <g id="Group-10" transform="translate(216.000000, 1405.000000)">
                <rect id="Rectangle" fill="#4F46F3" x="0" y="0" width="47" height="47" rx="8"></rect>
                <path d="M24.5976244,29.3882017 L24.5976244,28.9838249 C24.6213808,26.6646051 25.4528582,25.5823026 27.3296214,24.4524263 C29.5508537,23.132255 31,21.3839201 31,18.5889629 C31,14.4262607 27.6503341,12 22.9346696,12 C18.6228656,12 15.1069042,14.2597526 15,19.0171265 L19.8463252,19.0171265 C19.9175947,17.0784967 21.3548627,16.0437678 22.9109131,16.0437678 C24.5144766,16.0437678 25.8092056,17.114177 25.8092056,18.7673644 C25.8092056,20.3254044 24.6807721,21.3601332 23.2197476,22.2878211 C21.2242019,23.5485252 20.1076466,24.8211227 20.0957684,28.9838249 L20.0957684,29.3882017 L24.5976244,29.3882017 Z M22.4357832,37 C23.956199,37 25.2746845,35.7274025 25.2865627,34.1455756 C25.2746845,32.5875357 23.956199,31.3149382 22.4357832,31.3149382 C20.8678545,31.3149382 19.5731255,32.5875357 19.5850037,34.1455756 C19.5731255,35.7274025 20.8678545,37 22.4357832,37 Z" id="?" fill="#FFFFFF" fill-rule="nonzero"></path>
            </g>
        </g>
    </g>
</svg>