<?xml version="1.0" encoding="UTF-8"?>
<svg width="97px" height="97px" viewBox="0 0 97 97" version="1.1" xmlns="http://www.w3.org/2000/svg" xmlns:xlink="http://www.w3.org/1999/xlink">
    <title>Group 8</title>
    <g id="Page-1" stroke="none" stroke-width="1" fill="none" fill-rule="evenodd">
        <g id="Pricing-Page-Alt" transform="translate(-248.000000, -412.000000)">
            <g id="Group-8" transform="translate(248.000000, 412.000000)">
                <rect id="Rectangle" fill="#F0F4FE" x="0" y="0" width="97" height="97" rx="12"></rect>
                <g id="pawn.1" transform="translate(37.000000, 30.000000)" fill="#4651F3" fill-rule="nonzero">
                    <path d="M8.32833333,16.8366667 C8.66333333,17.055 9.01333333,17.2483333 9.37666667,17.4216667 C9.42666667,17.445 9.475,17.47 9.525,17.4933333 C9.89666667,17.665 10.2783333,17.8166667 10.675,17.9366667 C10.6816667,17.9383333 10.69,17.94 10.6983333,17.9416667 C11.065,18.0516667 11.4433333,18.1333333 11.8283333,18.1983333 C11.9233333,18.215 12.0183333,18.23 12.115,18.2416667 C12.515,18.295 12.92,18.3333333 13.335,18.3333333 C13.75,18.3333333 14.155,18.2966667 14.555,18.2416667 C14.6516667,18.2283333 14.7466667,18.2133333 14.8416667,18.1983333 C15.2266667,18.135 15.605,18.0533333 15.9716667,17.9416667 C15.9783333,17.94 15.9866667,17.9383333 15.995,17.9366667 C16.3916667,17.8166667 16.7733333,17.665 17.145,17.4933333 C17.195,17.47 17.2433333,17.4466667 17.2933333,17.4216667 C17.655,17.2466667 18.0066667,17.055 18.34,16.8366667 C20.8416667,15.1983333 22.5016667,12.375 22.5016667,9.16666667 C22.5016667,4.11166667 18.39,0 13.335,0 C8.28,0 4.16833208,4.11166667 4.16833208,9.16666667 C4.16666667,12.375 5.82666667,15.1983333 8.32833333,16.8366667 Z M21.6666667,31.6666667 L5,31.6666667 C2.70333333,31.6666667 0.833333333,33.5366667 0.833333333,35.8333333 L0.833333333,37.5 C0.833333333,38.8783333 1.955,40 3.33333333,40 L23.3333333,40 C24.7116667,40 25.8333333,38.8783333 25.8333333,37.5 L25.8333333,35.8333333 C25.8333333,33.5366667 23.9633333,31.6666667 21.6666667,31.6666667 Z M13.3333333,20 C11.49,20 9.75333333,19.535 8.23166667,18.7183333 C7.87666667,22.8266667 6.60833333,27.375 5.78666667,30 L20.88,30 C20.0566667,27.3766667 18.7883333,22.8283333 18.435,18.7183333 C16.9133333,19.535 15.1766667,20 13.3333333,20 Z" id="Shape"></path>
                </g>
            </g>
        </g>
    </g>
</svg>