<?xml version="1.0" encoding="UTF-8"?>
<svg width="151px" height="163px" viewBox="0 0 151 163" version="1.1" xmlns="http://www.w3.org/2000/svg" xmlns:xlink="http://www.w3.org/1999/xlink">
    <title>Group 5</title>
    <g id="Page-1" stroke="none" stroke-width="1" fill="none" fill-rule="evenodd">
        <g id="Pricing-Page" transform="translate(-927.000000, -2012.000000)" fill-rule="nonzero">
            <g id="Group-4" transform="translate(887.000000, 2012.000000)">
                <g id="Group-5" transform="translate(40.000000, 0.000000)">
                    <g id="Group-3" transform="translate(0.000000, 100.017398)" fill="#C8D1EA">
                        <path d="M123.779968,37.3243097 C120.940323,31.6147846 115.240307,28.0656203 108.897743,28.0656203 C107.538029,28.0656203 106.182462,28.2366142 104.868349,28.56609 L82.545011,36.8989105 C76.5548116,38.2918844 70.2371204,38.137573 64.4749218,35.6936126 C75.1785167,34.734379 86.6904776,32.2028365 86.6904776,25.7384363 C86.6904776,19.3324242 74.8676067,18.1730027 59.9024721,16.7049583 C55.6989689,16.2920708 51.454011,15.8750127 47.5945815,15.3286666 C43.3371873,14.7239324 39.2456117,14.0191042 35.4400733,13.2308645 C34.8845808,13.1182588 34.3166518,13.2308645 33.8523596,13.5519992 C33.3922128,13.8689633 33.0730118,14.3652624 32.9776661,14.9199497 C31.19097,25.3672546 27.8828876,38.683919 26.0671732,45.6946654 C25.7935724,46.7539929 26.3780832,47.8508556 27.4144498,48.1970138 L58.4639951,58.6109541 C62.4312067,60.1165337 65.5195794,61.188373 69.1178444,61.188373 C74.3867326,61.188373 80.4266775,58.9154065 94.0320991,53.3018047 L122.78091,40.1561341 C123.290803,39.9225815 123.688768,39.4888411 123.879459,38.9550068 C124.070151,38.4211725 124.032841,37.82895 123.779968,37.3243097 Z" id="Path"></path>
                        <path d="M29.3589055,5.95967302 C24.9353547,1.74806496 5.93914064,0.413080267 2.17275615,0.189893972 C1.62648665,0.169228574 1.0596807,0.359350233 0.644844454,0.747859711 C0.230008213,1.13636919 0,1.68193569 0,2.25230067 L0,49.1544874 C0,50.2952173 0.920032852,51.2210271 2.05364476,51.2210271 C8.25154464,51.2210271 17.9899281,53.134643 18.0843957,53.1553084 C18.2199363,53.1759738 18.3554768,53.188373 18.4828028,53.188373 C19.3905138,53.188373 20.2119717,52.5849434 20.4625164,51.6715328 C20.8034214,50.4274759 28.8249578,21.078478 29.991428,7.63770331 C30.0489301,7.0136083 29.8148146,6.39364637 29.3589055,5.95967302 Z" id="Path"></path>
                    </g>
                    <path d="M73.3678969,89.1766472 C73.6592302,89.4827672 74.0640302,89.6598366 74.4933635,89.6598366 C74.9226969,89.6598366 75.3274969,89.4827672 75.6188302,89.1766472 L94.0096302,69.6810056 C96.3525635,67.2470516 97.4933635,64.4889705 97.4933635,61.2477001 L97.4933635,60.8875589 C97.4933635,54.4200239 93.1049635,48.8018217 87.2905635,47.8174359 C81.8901635,46.9050783 76.8792302,50.0473099 74.4657635,54.8281838 C72.0062969,50.0773217 67.0290969,46.9290877 61.6961635,47.8174359 C55.8817635,48.8018217 51.4933635,54.4200239 51.4933635,60.8875589 L51.4933635,61.2477001 C51.4933635,64.4859693 52.6341635,67.2470516 54.9678969,69.6690009 L73.3678969,89.1766472 Z" id="Path" fill="#DD2020"></path>
                    <path d="M127.377321,49.6548647 C127.579987,49.8735219 127.861587,50 128.160254,50 C128.458921,50 128.740521,49.8735219 128.943187,49.6548647 L141.736787,35.7294065 C143.366654,33.9908679 144.160254,32.02081 144.160254,29.7056168 L144.160254,29.4483731 C144.160254,24.8287052 141.107454,20.8157037 137.062654,20.112571 C133.305854,19.460887 129.819987,21.7053381 128.141054,25.1202481 C126.430121,21.7267751 122.967721,19.4780365 119.257854,20.112571 C115.213054,20.8157037 112.160254,24.8287052 112.160254,29.4483731 L112.160254,29.7056168 C112.160254,32.0186663 112.953854,33.9908679 114.577321,35.7208317 L127.377321,49.6548647 Z" id="Path" fill="#FFA1A1" opacity="0.400000006" transform="translate(128.160254, 35.000000) rotate(38.000000) translate(-128.160254, -35.000000) "></path>
                    <path d="M25.6709207,21.7929188 C25.7975874,21.9241131 25.9735874,22 26.160254,22 C26.3469207,22 26.5229207,21.9241131 26.6495874,21.7929188 L34.6455874,13.4376439 C35.664254,12.3945207 36.160254,11.212486 36.160254,9.82337007 L36.160254,9.66902386 C36.160254,6.89722313 34.252254,4.48942222 31.724254,4.06754257 C29.376254,3.67653217 27.1975874,5.02320287 26.148254,7.07214884 C25.0789207,5.03606506 22.9149207,3.68682192 20.596254,4.06754257 C18.068254,4.48942222 16.160254,6.89722313 16.160254,9.66902386 L16.160254,9.82337007 C16.160254,11.2111998 16.656254,12.3945207 17.6709207,13.432499 L25.6709207,21.7929188 Z" id="Path" fill="#FFA1A1" opacity="0.400000006" transform="translate(26.160254, 13.000000) rotate(-30.000000) translate(-26.160254, -13.000000) "></path>
                </g>
            </g>
        </g>
    </g>
</svg>