<?xml version="1.0" encoding="UTF-8"?>
<svg width="97px" height="97px" viewBox="0 0 97 97" version="1.1" xmlns="http://www.w3.org/2000/svg" xmlns:xlink="http://www.w3.org/1999/xlink">
    <title>Group 6</title>
    <defs>
        <path d="M12,0 L85,0 C91.627417,0 97,5.372583 97,12 L97,85 C97,91.627417 91.627417,97 85,97 L12,97 C5.372583,97 0,91.627417 0,85 L0,12 C0,5.372583 5.372583,0 12,0 Z" id="path-1"></path>
        <linearGradient x1="131.595493%" y1="-23.0214817%" x2="0%" y2="106.299832%" id="linearGradient-3">
            <stop stop-color="#FFF5AF" offset="0%"></stop>
            <stop stop-color="#FFD11A" offset="100%"></stop>
        </linearGradient>
    </defs>
    <g id="Page-1" stroke="none" stroke-width="1" fill="none" fill-rule="evenodd">
        <g id="Pricing-Page-Alt" transform="translate(-775.000000, -412.000000)">
            <g id="Rectangle-+-crown-Mask" transform="translate(775.000000, 412.000000)">
                <mask id="mask-2" fill="white">
                    <use xlink:href="#path-1"></use>
                </mask>
                <use id="Mask" fill="#4651F3" xlink:href="#path-1"></use>
                <path d="M85.8384912,76.7711202 L126.143578,117.076207 C130.048821,120.98145 130.048821,127.313099 126.143578,131.218342 L104.223267,153.138653 C100.318025,157.043895 93.9863748,157.043895 90.0811319,153.138653 L49.7760453,112.833566 C45.8708024,108.928323 45.8708024,102.596673 49.7760453,98.6914304 L71.6963556,76.7711202 C75.6015985,72.8658772 81.9332483,72.8658772 85.8384912,76.7711202 Z" id="Rectangle" fill="#2835F8" mask="url(#mask-2)"></path>
                <path d="M-13.7251774,-41.5589255 L40.4850441,-23.9449568 C45.7375842,-22.2383031 48.612093,-16.5967618 46.9054393,-11.3442217 L37.3259125,18.1385303 C35.6192587,23.3910704 29.9777175,26.2655792 24.7251774,24.5589255 L-29.4850441,6.94495683 C-34.7375842,5.23830309 -37.612093,-0.403238179 -35.9054393,-5.65577828 L-26.3259125,-35.1385303 C-24.6192587,-40.3910704 -18.9777175,-43.2655792 -13.7251774,-41.5589255 Z" id="Rectangle" fill="#2835F8" mask="url(#mask-2)"></path>
                <g id="crown" mask="url(#mask-2)" fill="url(#linearGradient-3)">
                    <g transform="translate(29.000000, 31.000000)" id="Combined-Shape">
                        <path d="M39.0000021,32.2000017 L39.0000021,36.1000019 C39.0000021,36.8179721 38.4179723,37.400002 37.7000021,37.400002 L37.7000021,37.400002 L3.90000021,37.400002 C3.18203,37.400002 2.60000014,36.8179721 2.60000014,36.1000019 L2.60000014,36.1000019 L2.60000014,32.2000017 L39.0000021,32.2000017 Z M20.7987011,0 C22.9527089,0 24.6988772,1.74608957 24.6988772,3.90000021 C24.6957686,4.47861494 23.5624691,6.04911118 23.3088596,6.56920031 C25.4517111,10.2135952 28.1230875,13.115336 29.2828843,17.1808009 C32.5892331,15.1380312 36.2464085,13.7274197 40.0681714,13.0208007 C40.5695547,12.9299342 41.0778012,13.1403388 41.3682302,13.5590007 C41.6593473,13.9787447 41.6776578,14.5300677 41.4150323,14.9682008 C39.2009663,19.1853994 37.9497391,23.8411045 37.7514668,28.6000016 L37.7514668,28.6000016 L3.84593538,28.6000016 C3.64632639,23.8416326 2.39611389,19.1863994 0.18497002,14.9682008 C-0.0776554816,14.5300677 -0.0593450333,13.9787447 0.231772134,13.5590007 C0.519578461,13.1370982 1.03001208,12.9257883 1.53183085,13.0208007 C5.3547336,13.7291237 9.01276438,15.1414883 12.3197181,17.1860009 C13.4765017,13.1186517 16.1461872,10.2150316 18.2885425,6.56920031 C18.0349331,6.04911118 16.9016335,4.47861494 16.8985249,3.90000021 C16.8985249,1.74608957 18.6446933,0 20.7987011,0 Z"></path>
                    </g>
                </g>
            </g>
        </g>
    </g>
</svg>