<?xml version="1.0" encoding="iso-8859-1"?>
<!-- Generator: Adobe Illustrator 19.0.0, SVG Export Plug-In . SVG Version: 6.00 Build 0)  -->
<svg version="1.1" id="Capa_1" xmlns="http://www.w3.org/2000/svg" xmlns:xlink="http://www.w3.org/1999/xlink" x="0px" y="0px"
	 viewBox="0 0 512 512" style="enable-background:new 0 0 512 512;" xml:space="preserve">
<path style="fill:#E5E5E5;" d="M224.761,512H6c-3.314,0-6-2.686-6-6V6c0-3.314,2.686-6,6-6h218.761c3.314,0,6,2.686,6,6v500
	C230.761,509.314,228.074,512,224.761,512z"/>
<path style="fill:#CBCBCB;" d="M199.855,0v512h24.905c3.314,0,6-2.686,6-6V6c0-3.314-2.686-6-6-6H199.855z"/>
<path style="fill:#E5E5E5;" d="M506,512H287.239c-3.314,0-6-2.686-6-6V6c0-3.314,2.686-6,6-6H506c3.314,0,6,2.686,6,6v500
	C512,509.314,509.314,512,506,512z"/>
<circle style="fill:#6576D3;" cx="114.86" cy="133.41" r="72.11"/>
<circle style="fill:#FF6242;" cx="398.17" cy="133.41" r="72.11"/>
<path style="fill:#CBCBCB;" d="M481.095,0v512H506c3.314,0,6-2.686,6-6V6c0-3.314-2.686-6-6-6H481.095z"/>
<g>
	<path style="fill:#67D3FB;" d="M147.831,474.398H83.96c-11.899,0-21.634-9.735-21.634-21.634l0,0
		c0-11.899,9.735-21.634,21.634-21.634h63.871c11.899,0,21.634,9.735,21.634,21.634l0,0
		C169.465,464.663,159.73,474.398,147.831,474.398z"/>
	<path style="fill:#67D3FB;" d="M430.101,474.398H366.23c-11.899,0-21.634-9.735-21.634-21.634l0,0
		c0-11.899,9.735-21.634,21.634-21.634h63.871c11.899,0,21.634,9.735,21.634,21.634l0,0
		C451.734,464.663,441.999,474.398,430.101,474.398z"/>
</g>
<g>
	<path style="fill:#FBD560;" d="M371.074,160.5c1.464,1.464,3.384,2.196,5.303,2.196s3.839-0.732,5.303-2.196l16.485-16.485
		L414.65,160.5c1.464,1.464,3.384,2.196,5.303,2.196s3.839-0.732,5.303-2.196c2.929-2.93,2.929-7.678,0-10.607l-16.484-16.484
		l16.484-16.484c2.929-2.93,2.929-7.678,0-10.607c-2.929-2.928-7.678-2.928-10.606,0l-16.485,16.485l-16.485-16.485
		c-2.929-2.928-7.678-2.928-10.606,0c-2.929,2.93-2.929,7.678,0,10.607l16.484,16.484l-16.484,16.484
		C368.145,152.822,368.145,157.57,371.074,160.5z"/>
	<path style="fill:#FBD560;" d="M103.618,160.886c1.387,1.273,3.199,1.975,5.071,1.975c0.143,0,0.287-0.004,0.431-0.013
		c2.024-0.116,3.915-1.047,5.241-2.579l37.994-43.904c2.71-3.133,2.369-7.869-0.764-10.579c-3.132-2.711-7.869-2.369-10.579,0.763
		l-32.94,38.064l-19.955-18.317c-3.051-2.801-7.796-2.598-10.597,0.453c-2.801,3.052-2.598,7.796,0.453,10.598L103.618,160.886z"/>
</g>
<g>
	<path style="fill:#6E6E6E;" d="M182.342,253.651H50.479c-4.142,0-7.5,3.357-7.5,7.5s3.358,7.5,7.5,7.5h131.863
		c4.142,0,7.5-3.357,7.5-7.5S186.484,253.651,182.342,253.651z"/>
	<path style="fill:#6E6E6E;" d="M182.342,289.707H50.479c-4.142,0-7.5,3.357-7.5,7.5s3.358,7.5,7.5,7.5h131.863
		c4.142,0,7.5-3.357,7.5-7.5S186.484,289.707,182.342,289.707z"/>
	<path style="fill:#6E6E6E;" d="M182.342,325.764H50.479c-4.142,0-7.5,3.357-7.5,7.5s3.358,7.5,7.5,7.5h131.863
		c4.142,0,7.5-3.357,7.5-7.5S186.484,325.764,182.342,325.764z"/>
	<path style="fill:#6E6E6E;" d="M182.342,361.82H50.479c-4.142,0-7.5,3.357-7.5,7.5s3.358,7.5,7.5,7.5h131.863
		c4.142,0,7.5-3.357,7.5-7.5S186.484,361.82,182.342,361.82z"/>
	<path style="fill:#6E6E6E;" d="M332.233,268.651h131.863c4.142,0,7.5-3.357,7.5-7.5s-3.358-7.5-7.5-7.5H332.233
		c-4.142,0-7.5,3.357-7.5,7.5S328.091,268.651,332.233,268.651z"/>
	<path style="fill:#6E6E6E;" d="M464.097,289.707H332.233c-4.142,0-7.5,3.357-7.5,7.5s3.358,7.5,7.5,7.5h131.863
		c4.142,0,7.5-3.357,7.5-7.5S468.239,289.707,464.097,289.707z"/>
	<path style="fill:#6E6E6E;" d="M464.097,325.764H332.233c-4.142,0-7.5,3.357-7.5,7.5s3.358,7.5,7.5,7.5h131.863
		c4.142,0,7.5-3.357,7.5-7.5S468.239,325.764,464.097,325.764z"/>
	<path style="fill:#6E6E6E;" d="M464.097,361.82H332.233c-4.142,0-7.5,3.357-7.5,7.5s3.358,7.5,7.5,7.5h131.863
		c4.142,0,7.5-3.357,7.5-7.5S468.239,361.82,464.097,361.82z"/>
</g>
<g>
</g>
<g>
</g>
<g>
</g>
<g>
</g>
<g>
</g>
<g>
</g>
<g>
</g>
<g>
</g>
<g>
</g>
<g>
</g>
<g>
</g>
<g>
</g>
<g>
</g>
<g>
</g>
<g>
</g>
</svg>
