<?xml version="1.0" encoding="UTF-8"?>
<svg width="26px" height="27px" viewBox="0 0 26 27" version="1.1" xmlns="http://www.w3.org/2000/svg" xmlns:xlink="http://www.w3.org/1999/xlink">
    <title>stock</title>
    <g id="Page-1" stroke="none" stroke-width="1" fill="none" fill-rule="evenodd">
        <g id="Tools-menu" transform="translate(-503.000000, -98.000000)" fill="#4651F3" fill-rule="nonzero">
            <g id="stock" transform="translate(503.000000, 98.000000)">
                <g id="financial-report">
                    <path d="M17.4164718,8.82034964e-05 C17.837684,-0.004662271 18.2428907,0.182649858 18.5407481,0.519891354 C18.8013733,0.814977663 18.9606144,1.20312072 18.9935937,1.61503614 L18.9999249,1.79282477 L18.9993785,11.3310786 C18.3658516,11.1156701 17.6947454,11 17,11 C16.6602738,11 16.3262002,11.0276584 15.9994089,11.0811125 L16,8 C16,7.44771525 15.5522847,7 15,7 L15,7 L14,7 C13.4477153,7 13,7.44771525 13,8 L13,8 L12.9988333,12.4348608 C12.1914692,13.0787443 11.508433,13.9121788 10.9991214,14.8787108 L11,12 C11,11.4477153 10.5522847,11 10,11 L10,11 L9,11 C8.44771525,11 8,11.4477153 8,12 L8,12 L7.99907507,20.999 L5.99907507,20.999 L6,6 C6,5.48716416 5.61395981,5.06449284 5.11662113,5.00672773 L5,5 L4,5 C3.44771525,5 3,5.44771525 3,6 L3,6 L2.99907507,20.999 L1.58352823,20.999915 C1.16231597,21.0045773 0.757109297,20.8172651 0.459251905,20.4800237 C0.198626687,20.1849373 0.0393856482,19.7967943 0.00640625947,19.3848789 L7.5069919e-05,19.2070902 L7.5069919e-05,1.79282477 C7.5069919e-05,0.854882212 0.636428867,0.0851004909 1.44691426,0.00666901489 L1.58352823,8.82034964e-05 L17.4164718,8.82034964e-05 Z" id="Combined-Shape"></path>
                </g>
                <g id="search" transform="translate(12.000000, 13.000000)">
                    <path d="M10.951,9.7631 C10.544,9.3898 9.9114,9.417 9.5381,9.824 C9.1647,10.2309 9.1919,10.8635 9.5989,11.2369 L10.951,9.7631 Z M12.324,13.7369 C12.7309,14.1102 13.3635,14.083 13.7369,13.676 C14.1102,13.2691 14.083,12.6365 13.676,12.2631 L12.324,13.7369 Z M11,6.5 C11,8.98528 8.98528,11 6.5,11 L6.5,13 C10.0899,13 13,10.0899 13,6.5 L11,6.5 Z M6.5,11 C4.01472,11 2,8.98528 2,6.5 L-1.25233157e-13,6.5 C-1.25233157e-13,10.0899 2.91015,13 6.5,13 L6.5,11 Z M2,6.5 C2,4.01472 4.01472,2 6.5,2 L6.5,1.02140518e-13 C2.91015,1.02140518e-13 -1.25233157e-13,2.91015 -1.25233157e-13,6.5 L2,6.5 Z M6.5,2 C8.98528,2 11,4.01472 11,6.5 L13,6.5 C13,2.91015 10.0899,1.02140518e-13 6.5,1.02140518e-13 L6.5,2 Z M9.5989,11.2369 L12.324,13.7369 L13.676,12.2631 L10.951,9.7631 L9.5989,11.2369 Z" id="Shape"></path>
                </g>
            </g>
        </g>
    </g>
</svg>