<?xml version="1.0" encoding="UTF-8"?>
<svg width="25px" height="25px" viewBox="0 0 25 25" version="1.1" xmlns="http://www.w3.org/2000/svg" xmlns:xlink="http://www.w3.org/1999/xlink">
    <title>shares</title>
    <g id="Page-1" stroke="none" stroke-width="1" fill="none" fill-rule="evenodd">
        <g id="Tools-menu" transform="translate(-501.000000, -295.000000)" fill="#4651F3" fill-rule="nonzero">
            <g id="shares" transform="translate(501.000000, 295.000000)">
                <rect id="Rectangle" x="-8.58855149e-14" y="12.4528791" width="3.01887979" height="12.0755192" rx="0.754719947"></rect>
                <path d="M23.6740553,14.0815648 C22.9068134,13.0993339 21.4900036,12.9218953 20.5042315,13.6845821 L14.9313794,18.0136557 C14.5339141,18.322815 14.0447309,18.4906564 13.5411853,18.4906387 L8.30191942,18.4906387 C10.386021,18.4906387 12.0755192,16.8011406 12.0755192,14.717039 C12.0755192,14.3002187 11.7376195,13.962319 11.3207992,13.962319 L4.52831968,13.962319 L4.52831968,23.0189584 L14.5751516,23.0189584 C15.4144534,23.018844 16.2297649,22.7389293 16.8921419,22.2234836 L23.2770726,17.2574263 C24.2631617,16.4897619 24.4408396,15.0683384 23.6740553,14.0815648 Z" id="Path"></path>
                <path d="M12.8302391,4.52831968 C14.0807001,4.52831968 15.0943989,3.51462079 15.0943989,2.26415984 C15.0943989,1.01369889 14.0807001,0 12.8302391,0 C11.5797781,0 10.5660793,1.01369889 10.5660793,2.26415984 C10.5660793,3.51462079 11.5797781,4.52831968 12.8302391,4.52831968 Z M12.8302391,1.50943989 C13.2470594,1.50943989 13.584959,1.84733952 13.584959,2.26415984 C13.584959,2.68098016 13.2470594,3.01887979 12.8302391,3.01887979 C12.4134188,3.01887979 12.0755192,2.68098016 12.0755192,2.26415984 C12.0755192,1.84733952 12.4134188,1.50943989 12.8302391,1.50943989 Z" id="Shape"></path>
                <path d="M17.3585588,6.03775958 C16.1080978,6.03775958 15.0943989,7.05145847 15.0943989,8.30191942 C15.0943989,9.55238037 16.1080978,10.5660793 17.3585588,10.5660793 C18.6090197,10.5660793 19.6227186,9.55238037 19.6227186,8.30191942 C19.6227186,7.05145847 18.6090197,6.03775958 17.3585588,6.03775958 Z M17.3585588,9.05663937 C16.9417385,9.05663937 16.6038388,8.71873974 16.6038388,8.30191942 C16.6038388,7.8850991 16.9417385,7.54719947 17.3585588,7.54719947 C17.7753791,7.54719947 18.1132787,7.8850991 18.1132787,8.30191942 C18.1132787,8.71873974 17.7753791,9.05663937 17.3585588,9.05663937 Z" id="Shape"></path>
                <path d="M10.8377784,10.3909842 C11.1570104,10.6535569 11.6280625,10.6104893 11.8943864,10.2943801 L19.4415858,1.23774071 C19.6144222,1.03066068 19.6636537,0.747103737 19.5707353,0.493883055 C19.4778168,0.240662373 19.2568651,0.0562481959 18.9911103,0.0101075607 C18.7253556,-0.0360330745 18.4551723,0.0631096931 18.282336,0.270189741 L10.7351365,9.32682911 C10.6073123,9.48142377 10.5462908,9.68054527 10.5655496,9.8802141 C10.5848084,10.0798829 10.6827631,10.2636706 10.8377784,10.3909842 Z" id="Path"></path>
            </g>
        </g>
    </g>
</svg>