<?xml version="1.0" encoding="iso-8859-1"?>
<!-- Generator: Adobe Illustrator 19.0.0, SVG Export Plug-In . SVG Version: 6.00 Build 0)  -->
<svg version="1.1" id="Layer_1" xmlns="http://www.w3.org/2000/svg" xmlns:xlink="http://www.w3.org/1999/xlink" x="0px" y="0px"
	 viewBox="0 0 512 512" style="enable-background:new 0 0 512 512;" xml:space="preserve">
<polygon style="fill:#D4D4D4;" points="496.382,65.829 466.334,65.829 443.283,211.762 466.334,357.695 496.382,357.695 "/>
<polygon style="fill:#EDEDED;" points="436.287,65.829 413.236,211.762 436.287,357.695 466.334,357.695 466.334,65.829 "/>
<polygon style="fill:#D4D4D4;" points="436.287,65.829 406.239,65.829 383.188,211.762 406.239,357.695 436.287,357.695 "/>
<polygon style="fill:#EDEDED;" points="376.19,65.829 353.14,211.762 376.19,357.695 406.239,357.695 406.239,65.829 "/>
<polygon style="fill:#D4D4D4;" points="376.19,65.829 346.143,65.829 323.093,211.762 346.143,357.695 376.19,357.695 "/>
<polygon style="fill:#EDEDED;" points="316.095,65.829 293.045,211.762 316.095,357.695 346.143,357.695 346.143,65.829 "/>
<polygon style="fill:#D4D4D4;" points="316.095,65.829 286.048,65.829 262.997,211.762 286.048,357.695 316.095,357.695 "/>
<polygon style="fill:#EDEDED;" points="256,65.829 232.95,211.762 256,357.695 286.048,357.695 286.048,65.829 "/>
<polygon style="fill:#D4D4D4;" points="256,65.829 225.952,65.829 202.901,211.762 225.952,357.695 256,357.695 "/>
<polygon style="fill:#EDEDED;" points="195.905,65.829 172.853,211.762 195.905,357.695 225.952,357.695 225.952,65.829 "/>
<polygon style="fill:#D4D4D4;" points="195.905,65.829 165.857,65.829 142.806,211.762 165.857,357.695 195.905,357.695 "/>
<polygon style="fill:#EDEDED;" points="135.809,65.829 112.758,211.762 135.809,357.695 165.857,357.695 165.857,65.829 "/>
<polygon style="fill:#D4D4D4;" points="135.809,65.829 105.761,65.829 82.711,211.762 105.761,357.695 135.809,357.695 "/>
<polygon style="fill:#EDEDED;" points="75.713,65.829 52.663,211.762 75.713,357.695 105.761,357.695 105.761,65.829 "/>
<polygon style="fill:#D4D4D4;" points="75.713,65.829 45.666,65.829 22.615,211.762 45.666,357.695 75.713,357.695 "/>
<rect x="15.618" y="65.829" style="fill:#EDEDED;" width="30.048" height="291.861"/>
<polygon style="fill:#027ACD;" points="512,346.258 256,346.258 235.101,368.636 256,391.013 512,391.013 "/>
<rect y="346.258" style="fill:#3EAFF5;" width="256" height="44.756"/>
<path style="fill:#6F6F6F;" d="M59.298,371.219l-9.796,38.859l9.796,36.094c20.665,0,37.476-16.811,37.476-37.476
	S79.963,371.219,59.298,371.219z"/>
<path style="fill:#9D9D9D;" d="M21.822,408.695c0,20.665,16.811,37.476,37.476,37.476v-74.953
	C38.633,371.219,21.822,388.03,21.822,408.695z"/>
<path style="fill:#D4D4D4;" d="M59.298,390.81l-9.796,17.886l9.796,17.886c9.862,0,17.886-8.024,17.886-17.886
	C77.183,398.833,69.16,390.81,59.298,390.81z"/>
<path style="fill:#EDEDED;" d="M41.412,408.695c0,9.862,8.024,17.886,17.886,17.886v-35.772
	C49.436,390.81,41.412,398.833,41.412,408.695z"/>
<path style="fill:#6F6F6F;" d="M153.233,371.219l-9.796,38.859l9.796,36.094c20.665,0,37.476-16.811,37.476-37.476
	S173.898,371.219,153.233,371.219z"/>
<path style="fill:#9D9D9D;" d="M115.757,408.695c0,20.665,16.811,37.476,37.476,37.476v-74.953
	C132.568,371.219,115.757,388.03,115.757,408.695z"/>
<path style="fill:#D4D4D4;" d="M153.233,390.81l-9.796,17.886l9.796,17.886c9.862,0,17.886-8.024,17.886-17.886
	C171.119,398.833,163.095,390.81,153.233,390.81z"/>
<path style="fill:#EDEDED;" d="M135.348,408.695c0,9.862,8.024,17.886,17.886,17.886v-35.772
	C143.37,390.81,135.348,398.833,135.348,408.695z"/>
<path style="fill:#6F6F6F;" d="M358.867,371.219l-9.796,38.859l9.796,36.094c20.665,0,37.476-16.811,37.476-37.476
	S379.531,371.219,358.867,371.219z"/>
<path style="fill:#9D9D9D;" d="M321.391,408.695c0,20.665,16.811,37.476,37.476,37.476v-74.953
	C338.202,371.219,321.391,388.03,321.391,408.695z"/>
<path style="fill:#D4D4D4;" d="M358.867,390.81l-9.796,17.886l9.796,17.886c9.862,0,17.886-8.024,17.886-17.886
	C376.753,398.833,368.729,390.81,358.867,390.81z"/>
<path style="fill:#EDEDED;" d="M340.98,408.695c0,9.862,8.024,17.886,17.886,17.886v-35.772
	C349.004,390.81,340.98,398.833,340.98,408.695z"/>
<path style="fill:#6F6F6F;" d="M452.802,371.219l-9.796,38.859l9.796,36.094c20.665,0,37.476-16.811,37.476-37.476
	C490.278,388.03,473.466,371.219,452.802,371.219z"/>
<path style="fill:#9D9D9D;" d="M415.326,408.695c0,20.665,16.811,37.476,37.476,37.476v-74.953
	C432.137,371.219,415.326,388.03,415.326,408.695z"/>
<path style="fill:#D4D4D4;" d="M452.802,390.81l-9.796,17.886l9.796,17.886c9.862,0,17.886-8.024,17.886-17.886
	C470.688,398.833,462.664,390.81,452.802,390.81z"/>
<path style="fill:#EDEDED;" d="M434.916,408.695c0,9.862,8.024,17.886,17.886,17.886v-35.772
	C442.94,390.81,434.916,398.833,434.916,408.695z"/>
<g>
</g>
<g>
</g>
<g>
</g>
<g>
</g>
<g>
</g>
<g>
</g>
<g>
</g>
<g>
</g>
<g>
</g>
<g>
</g>
<g>
</g>
<g>
</g>
<g>
</g>
<g>
</g>
<g>
</g>
</svg>
