<?xml version="1.0" encoding="iso-8859-1"?>
<!-- Generator: Adobe Illustrator 19.0.0, SVG Export Plug-In . SVG Version: 6.00 Build 0)  -->
<svg version="1.1" id="Capa_1" xmlns="http://www.w3.org/2000/svg" xmlns:xlink="http://www.w3.org/1999/xlink" x="0px" y="0px"
	 viewBox="0 0 512 512" style="enable-background:new 0 0 512 512;" xml:space="preserve">
<path style="fill:#D0D7DF;" d="M469.333,181.333H416c-11.733,0-21.333-9.6-21.333-21.333v-53.333L469.333,181.333z"/>
<path style="fill:#F1F2F2;" d="M469.333,181.333v53.333h-320V128c0-11.733,9.6-21.333,21.333-21.333h96h128V160
	c0,11.733,9.6,21.333,21.333,21.333H469.333z"/>
<path style="fill:#FED049;" d="M501.333,256v213.333c0,17.707-14.293,32-32,32h-384c0,0,21.333,0,21.333-32V256
	c0,0,0-21.333,21.333-21.333h21.333h320H480C480,234.667,501.333,234.667,501.333,256z"/>
<path style="fill:#F6B445;" d="M266.667,64v42.667h-96c-11.733,0-21.333,9.6-21.333,21.333v106.667H128
	c-21.333,0-21.333,21.333-21.333,21.333v213.333c0,32-21.333,32-21.333,32H42.667c-17.707,0-32-14.293-32-32V42.667
	c0-17.707,14.293-32,32-32h192c17.707,0,32,14.293,32,32V64z"/>
<g>
	<path style="fill:#474C54;" d="M480,224v-42.667c0-2.837-1.12-5.547-3.125-7.541l-74.656-74.656
		c-0.981-0.981-2.155-1.771-3.445-2.315c-1.291-0.533-2.677-0.821-4.107-0.821h-224c-17.643,0-32,14.357-32,32v96H128
		c-23.477,0-32,19.136-32,32v213.333c0,19.477-9.003,21.195-10.923,21.333H42.667c-11.765,0-21.333-9.568-21.333-21.333V42.667
		c0-11.765,9.568-21.333,21.333-21.333h192c11.765,0,21.333,9.568,21.333,21.333V64c0,5.899,4.779,10.667,10.667,10.667
		c5.899,0,10.667-4.768,10.667-10.667V42.667C277.333,19.136,258.197,0,234.667,0h-192C19.136,0,0,19.136,0,42.667v426.667
		C0,492.864,19.136,512,42.667,512h426.667C492.864,512,512,492.864,512,469.333V256C512,232.523,492.864,224,480,224z
		 M490.667,469.333c0,11.765-9.568,21.333-21.333,21.333H113.675c2.24-5.664,3.659-12.651,3.659-21.333V256.128
		c0.128-4.928,2.08-10.795,10.667-10.795h128c5.888,0,10.667-4.768,10.667-10.667S261.888,224,256,224h-96v-96
		c0-5.888,4.789-10.667,10.667-10.667H384V160c0,17.643,14.357,32,32,32c5.899,0,10.667-4.768,10.667-10.667
		c0-5.899-4.768-10.667-10.667-10.667c-5.888,0-10.667-4.779-10.667-10.667v-27.584l53.333,53.333V224h-96
		c-5.899,0-10.667,4.768-10.667,10.667s4.768,10.667,10.667,10.667h117.205c4.928,0.128,10.795,2.069,10.795,10.667V469.333z"/>
	<path style="fill:#474C54;" d="M348.875,184.459l-31.989-31.989c-0.981-0.992-2.165-1.771-3.488-2.315
		c-2.603-1.077-5.536-1.077-8.149,0c-1.312,0.544-2.496,1.333-3.477,2.315l-31.989,31.989c-4.171,4.171-4.171,10.912,0,15.083
		s10.912,4.171,15.083,0l13.803-13.792V384c0,5.899,4.768,10.667,10.667,10.667S320,389.899,320,384V185.749l13.792,13.792
		c2.08,2.08,4.811,3.125,7.541,3.125s5.461-1.045,7.541-3.125C353.045,195.371,353.045,188.629,348.875,184.459z"/>
</g>
<g>
</g>
<g>
</g>
<g>
</g>
<g>
</g>
<g>
</g>
<g>
</g>
<g>
</g>
<g>
</g>
<g>
</g>
<g>
</g>
<g>
</g>
<g>
</g>
<g>
</g>
<g>
</g>
<g>
</g>
</svg>
