<?xml version="1.0" encoding="UTF-8"?>
<svg width="33px" height="33px" viewBox="0 0 33 33" version="1.1" xmlns="http://www.w3.org/2000/svg" xmlns:xlink="http://www.w3.org/1999/xlink">
    <title>Group 7</title>
    <g id="Page-1" stroke="none" stroke-width="1" fill="none" fill-rule="evenodd">
        <g id="Pricing-Page" transform="translate(-236.000000, -2160.000000)">
            <g id="Group-7" transform="translate(236.000000, 2160.000000)">
                <rect id="Rectangle" fill="#4F46F3" x="0" y="0" width="33" height="33" rx="6"></rect>
                <g id="hummer" transform="translate(7.000000, 6.000000)">
                    <rect id="bound" x="0" y="0" width="20" height="20"></rect>
                    <path d="M14.8729874,10.6012356 L17.2910815,8.26434363 C17.4580161,8.10301491 17.7286705,8.10301491 17.895605,8.26434363 L18.8747991,9.28677358 C19.0417336,9.44810226 19.0417336,9.70966782 18.8747991,9.8709965 L16.456705,12.2078885 C16.2897704,12.3692172 16.019116,12.3692172 15.8521814,12.2078885 L14.8729874,11.1854586 C14.7060528,11.0241298 14.7060528,10.7625644 14.8729874,10.6012356 Z M2.25040185,15.421115 L10.7137313,7.24199308 C11.0476005,6.91933564 11.5889093,6.91933564 11.9227784,7.24199308 L13.1318255,8.41043906 C13.4656947,8.73309652 13.4656947,9.25622763 13.1318255,9.57888508 L4.66849599,17.7580069 C4.33462686,18.0806644 3.79331805,18.0806644 3.45944892,17.7580069 L2.25040185,16.5895609 C1.91653272,16.2669034 1.91653272,15.7437724 2.25040185,15.421115 Z" id="Combined-Shape" fill="#FFFFFF" fill-rule="nonzero"></path>
                    <path d="M10.3242391,1.06873791 L10.3242391,1.06873791 C12.6254255,1.06873791 14.4909058,2.93421811 14.4909058,5.23540457 L14.4909058,8.98540459 C14.4909058,9.21552326 14.3043578,9.40207126 14.0742391,9.40207126 L10.7409058,9.40207126 C10.5107871,9.40207126 10.3242391,9.21552326 10.3242391,8.98540459 L10.3242391,1.06873791 Z" id="Rectangle" fill="#FFFFFF" fill-rule="nonzero" transform="translate(12.407572, 5.235405) rotate(-45.000000) translate(-12.407572, -5.235405) "></path>
                </g>
            </g>
        </g>
    </g>
</svg>